<svg width="130" height="46" viewBox="0 0 130 46" fill="none" xmlns="http://www.w3.org/2000/svg">
<path d="M30.4378 0C29.0163 2.51679 26.9328 6.55242 23.8237 7.0733C22.6603 7.28425 21.4335 7.06194 20.2717 7.29723C17.7841 7.73374 16.864 10.5053 16.8153 12.73C16.7391 15.203 17.6543 18.3867 20.5053 18.7453C21.4854 18.8946 22.5223 18.7599 23.5041 18.8816C25.7888 19.1039 27.3612 21.0625 28.5539 22.841C25.8115 23.0308 23.0383 23.7237 20.7098 25.2263C14.0989 29.6125 12.0722 38.5178 12.0187 45.9967C1.90281 41.8913 -0.0947164 27.4884 1.47767 17.9405C2.50483 11.5957 5.52628 4.68146 11.8353 2.0884C14.1038 1.14075 16.5833 0.827572 19.0238 0.746437C22.8112 0.626358 26.73 0.952519 30.4378 0Z" fill="#4F9DD6"/>
<path d="M28.5538 22.8409C25.8115 23.0308 23.0383 23.7237 20.7098 25.2263C14.0973 29.6124 12.0722 38.5194 12.0186 45.9967C2.46748 40.7587 1.83626 23.0324 6.71244 14.4159C8.62234 10.9093 11.6714 8.38927 15.6421 7.62174C17.6461 7.20146 19.7118 7.17875 21.7531 7.17712C21.7499 7.17712 21.7483 7.17712 21.7467 7.17875C21.2501 7.18199 20.7552 7.19984 20.2716 7.29883C17.784 7.73371 16.864 10.5053 16.8137 12.7316C16.739 15.2046 17.6526 18.3883 20.5037 18.7469C21.4838 18.8962 22.5207 18.7615 23.504 18.8832C25.7888 19.1071 27.3612 21.0641 28.5538 22.8426V22.8409Z" fill="#04588D"/>
<path d="M28.5539 22.841C25.8115 23.0308 23.0384 23.7237 20.7098 25.2263C14.099 29.6124 12.0722 38.5178 12.0187 45.9967C10.5696 39.8143 10.8244 33.1418 13.0815 27.1833C14.5468 23.4998 17.2437 19.3067 21.5406 18.8491C22.5126 18.7972 23.53 18.7923 24.468 19.0861C26.2773 19.6946 27.5235 21.3173 28.5555 22.841H28.5539Z" fill="#143652"/>
<path d="M36.6933 30.6657V32.733H28.5539V37.0607H35.8965V39.0842H28.5539V45.9969H26.2496V30.6641H36.6933V30.6657Z" fill="#04588D"/>
<path d="M46.5057 45.9969H44.2015V30.6641H46.5057V45.9969Z" fill="#04588D"/>
<path d="M64.3049 30.6656H66.5231V45.9984H63.8749L59.1594 38.5698C57.7671 36.3726 56.7692 34.7289 56.1655 33.6384C56.2223 35.5629 56.2515 38.1316 56.2515 41.3478V46.0001H54.0122V30.6673H56.6604L61.3987 38.0959C62.5897 39.9766 63.5877 41.6269 64.3926 43.0484C64.3358 41.1109 64.3065 38.5341 64.3065 35.3179V30.6673L64.3049 30.6656Z" fill="#04588D"/>
<path d="M106.581 30.6656H109.789V45.9984H107.571V41.1969C107.571 37.9531 107.6 35.3617 107.657 33.4226C107.355 34.3556 106.925 35.5402 106.365 36.9763L102.897 46.0001H100.96L97.45 36.9763C97.2196 36.3597 96.9973 35.7674 96.7831 35.1994C96.5673 34.6331 96.3661 34.0619 96.1795 33.4875C96.2363 35.412 96.2655 37.9807 96.2655 41.1969V45.9984H94.0472V30.6656H97.2342L100.379 38.8278C101.082 40.6939 101.606 42.1364 101.951 43.1555C102.454 41.6626 102.985 40.1486 103.545 38.612L106.581 30.6656Z" fill="#04588D"/>
<path d="M129.615 45.9969H127.181L125.673 42.0132H118.782L117.295 45.9969H114.905L120.891 30.6641H123.54L129.612 45.9969H129.615ZM119.515 40.0108H124.921L124.598 39.1702C123.78 37.1175 122.983 35.021 122.207 32.8823C121.677 34.3184 120.887 36.4133 119.838 39.1702L119.515 40.0108Z" fill="#04588D"/>
<path d="M86.5407 30.6656H74.0297V32.733H86.5407V30.6656Z" fill="#04588D"/>
<path d="M86.5407 43.9312H74.0297V45.9985H86.5407V43.9312Z" fill="#04588D"/>
<path d="M86.5407 37.0607H74.0297V39.0842H86.5407V37.0607Z" fill="#04588D"/>
</svg>
